<mxfile host="app.diagrams.net" agent="Mozilla/5.0 (Windows NT 10.0; Win64; x64; rv:141.0) Gecko/20100101 Firefox/141.0" version="28.1.0">
  <diagram name="Page-1" id="Ou1tNk7OMwFuzK4D-Hef">
    <mxGraphModel dx="2277" dy="1845" grid="1" gridSize="10" guides="1" tooltips="1" connect="1" arrows="1" fold="1" page="1" pageScale="1" pageWidth="850" pageHeight="1100" math="0" shadow="0">
      <root>
        <mxCell id="0" />
        <mxCell id="1" parent="0" />
        <mxCell id="4uSh787dof98kMlYw8wE-17" style="edgeStyle=orthogonalEdgeStyle;rounded=0;orthogonalLoop=1;jettySize=auto;html=1;" edge="1" parent="1" source="4uSh787dof98kMlYw8wE-1">
          <mxGeometry relative="1" as="geometry">
            <mxPoint x="520" y="210" as="targetPoint" />
          </mxGeometry>
        </mxCell>
        <mxCell id="4uSh787dof98kMlYw8wE-24" style="edgeStyle=orthogonalEdgeStyle;rounded=0;orthogonalLoop=1;jettySize=auto;html=1;" edge="1" parent="1" source="4uSh787dof98kMlYw8wE-1">
          <mxGeometry relative="1" as="geometry">
            <mxPoint x="240" y="210" as="targetPoint" />
          </mxGeometry>
        </mxCell>
        <mxCell id="4uSh787dof98kMlYw8wE-1" value="&lt;font style=&quot;font-size: 18px;&quot;&gt;Flow chain&lt;/font&gt;" style="whiteSpace=wrap;html=1;aspect=fixed;labelPosition=center;verticalLabelPosition=top;align=center;verticalAlign=bottom;" vertex="1" parent="1">
          <mxGeometry x="275" y="260" width="185" height="185" as="geometry" />
        </mxCell>
        <mxCell id="4uSh787dof98kMlYw8wE-4" value="Our smart contract code" style="rounded=0;whiteSpace=wrap;html=1;" vertex="1" parent="1">
          <mxGeometry x="305" y="322.5" width="120" height="60" as="geometry" />
        </mxCell>
        <mxCell id="4uSh787dof98kMlYw8wE-5" value="&lt;div&gt;&lt;font style=&quot;font-size: 19px;&quot;&gt;Backend&lt;/font&gt;&lt;/div&gt;" style="text;html=1;align=center;verticalAlign=middle;resizable=0;points=[];autosize=1;strokeColor=none;fillColor=none;" vertex="1" parent="1">
          <mxGeometry x="850" y="-280" width="100" height="40" as="geometry" />
        </mxCell>
        <mxCell id="4uSh787dof98kMlYw8wE-8" style="edgeStyle=orthogonalEdgeStyle;rounded=0;orthogonalLoop=1;jettySize=auto;html=1;entryX=0.5;entryY=1;entryDx=0;entryDy=0;" edge="1" parent="1" source="4uSh787dof98kMlYw8wE-6" target="4uSh787dof98kMlYw8wE-10">
          <mxGeometry relative="1" as="geometry">
            <mxPoint x="640" y="340" as="targetPoint" />
            <Array as="points">
              <mxPoint x="660" y="570" />
            </Array>
          </mxGeometry>
        </mxCell>
        <mxCell id="4uSh787dof98kMlYw8wE-20" style="edgeStyle=orthogonalEdgeStyle;rounded=0;orthogonalLoop=1;jettySize=auto;html=1;" edge="1" parent="1" source="4uSh787dof98kMlYw8wE-6">
          <mxGeometry relative="1" as="geometry">
            <mxPoint x="360" y="450" as="targetPoint" />
          </mxGeometry>
        </mxCell>
        <mxCell id="4uSh787dof98kMlYw8wE-6" value="Frontend (website) js, css" style="rounded=0;whiteSpace=wrap;html=1;" vertex="1" parent="1">
          <mxGeometry x="300" y="540" width="120" height="60" as="geometry" />
        </mxCell>
        <mxCell id="4uSh787dof98kMlYw8wE-18" style="edgeStyle=orthogonalEdgeStyle;rounded=0;orthogonalLoop=1;jettySize=auto;html=1;" edge="1" parent="1" source="4uSh787dof98kMlYw8wE-10">
          <mxGeometry relative="1" as="geometry">
            <mxPoint x="520" y="210" as="targetPoint" />
            <Array as="points">
              <mxPoint x="521" y="353" />
              <mxPoint x="521" y="210" />
            </Array>
          </mxGeometry>
        </mxCell>
        <mxCell id="4uSh787dof98kMlYw8wE-10" value="&lt;font style=&quot;font-size: 18px;&quot;&gt;Zircuit chain&lt;/font&gt;" style="whiteSpace=wrap;html=1;aspect=fixed;labelPosition=center;verticalLabelPosition=top;align=center;verticalAlign=bottom;" vertex="1" parent="1">
          <mxGeometry x="555" y="247.5" width="210" height="210" as="geometry" />
        </mxCell>
        <mxCell id="4uSh787dof98kMlYw8wE-11" value="Our smart contract code" style="rounded=0;whiteSpace=wrap;html=1;" vertex="1" parent="1">
          <mxGeometry x="600" y="325" width="120" height="60" as="geometry" />
        </mxCell>
        <mxCell id="4uSh787dof98kMlYw8wE-15" value="&lt;div align=&quot;left&quot;&gt;&lt;font style=&quot;font-size: 13px;&quot;&gt;Smart Contract &quot;api&quot;, should&lt;/font&gt;&lt;/div&gt;&lt;div align=&quot;left&quot;&gt;&lt;ul&gt;&lt;li&gt;&lt;font style=&quot;font-size: 13px;&quot;&gt;PURCHASE USDC&lt;/font&gt;&lt;/li&gt;&lt;li&gt;&lt;font style=&quot;font-size: 13px;&quot;&gt;SELL USDC&lt;/font&gt;&lt;/li&gt;&lt;li&gt;&lt;font style=&quot;font-size: 13px;&quot;&gt;GET current val&lt;/font&gt;&lt;/li&gt;&lt;li&gt;&lt;font style=&quot;font-size: 13px;&quot;&gt;Display nice on frontend :)&lt;/font&gt;&lt;/li&gt;&lt;/ul&gt;&lt;/div&gt;" style="rounded=0;whiteSpace=wrap;html=1;align=left;" vertex="1" parent="1">
          <mxGeometry x="-425" y="85" width="275" height="175" as="geometry" />
        </mxCell>
        <mxCell id="4uSh787dof98kMlYw8wE-25" style="edgeStyle=orthogonalEdgeStyle;rounded=0;orthogonalLoop=1;jettySize=auto;html=1;" edge="1" parent="1" source="4uSh787dof98kMlYw8wE-21">
          <mxGeometry relative="1" as="geometry">
            <mxPoint x="240" y="220" as="targetPoint" />
          </mxGeometry>
        </mxCell>
        <mxCell id="4uSh787dof98kMlYw8wE-21" value="&lt;font style=&quot;font-size: 15px;&quot;&gt;Hedera hashgraph&lt;/font&gt;" style="whiteSpace=wrap;html=1;aspect=fixed;labelPosition=center;verticalLabelPosition=top;align=center;verticalAlign=bottom;" vertex="1" parent="1">
          <mxGeometry x="20" y="260" width="185" height="185" as="geometry" />
        </mxCell>
        <mxCell id="4uSh787dof98kMlYw8wE-22" value="Our smart contract code" style="rounded=0;whiteSpace=wrap;html=1;" vertex="1" parent="1">
          <mxGeometry x="50" y="322.5" width="120" height="60" as="geometry" />
        </mxCell>
        <mxCell id="4uSh787dof98kMlYw8wE-23" style="edgeStyle=orthogonalEdgeStyle;rounded=0;orthogonalLoop=1;jettySize=auto;html=1;entryX=0.456;entryY=1.004;entryDx=0;entryDy=0;entryPerimeter=0;" edge="1" parent="1" source="4uSh787dof98kMlYw8wE-6" target="4uSh787dof98kMlYw8wE-21">
          <mxGeometry relative="1" as="geometry" />
        </mxCell>
        <mxCell id="4uSh787dof98kMlYw8wE-26" value="" style="endArrow=classic;html=1;rounded=0;" edge="1" parent="1">
          <mxGeometry width="50" height="50" relative="1" as="geometry">
            <mxPoint x="-40" y="423" as="sourcePoint" />
            <mxPoint x="-40" y="223" as="targetPoint" />
          </mxGeometry>
        </mxCell>
        <mxCell id="4uSh787dof98kMlYw8wE-27" value="&lt;font style=&quot;font-size: 16px;&quot;&gt;Purchase USDC, deposit funds&amp;nbsp;&lt;/font&gt;" style="text;html=1;align=center;verticalAlign=middle;resizable=0;points=[];autosize=1;strokeColor=none;fillColor=none;" vertex="1" parent="1">
          <mxGeometry x="-305" y="308" width="250" height="30" as="geometry" />
        </mxCell>
        <mxCell id="4uSh787dof98kMlYw8wE-28" style="edgeStyle=orthogonalEdgeStyle;rounded=0;orthogonalLoop=1;jettySize=auto;html=1;exitX=1;exitY=0.5;exitDx=0;exitDy=0;entryX=1;entryY=0.25;entryDx=0;entryDy=0;" edge="1" parent="1" source="4uSh787dof98kMlYw8wE-4" target="4uSh787dof98kMlYw8wE-4">
          <mxGeometry relative="1" as="geometry" />
        </mxCell>
        <mxCell id="4uSh787dof98kMlYw8wE-29" value="&lt;div&gt;&lt;font style=&quot;font-size: 15px;&quot;&gt;Deployed 3x&lt;br&gt;&lt;/font&gt;&lt;/div&gt;&lt;div&gt;&lt;br&gt;&lt;/div&gt;" style="text;html=1;align=center;verticalAlign=middle;resizable=0;points=[];autosize=1;strokeColor=none;fillColor=none;" vertex="1" parent="1">
          <mxGeometry x="-100" y="470" width="110" height="50" as="geometry" />
        </mxCell>
        <mxCell id="4uSh787dof98kMlYw8wE-33" value="&lt;div align=&quot;left&quot;&gt;Step 1:&lt;/div&gt;&lt;div align=&quot;left&quot;&gt;User creates account, creates a unique wallet for the person, connected to base blockchain network, coinbase&lt;/div&gt;&lt;div align=&quot;left&quot;&gt;&lt;br&gt;&lt;/div&gt;&lt;div align=&quot;left&quot;&gt;&lt;br&gt;&lt;/div&gt;&lt;div align=&quot;left&quot;&gt;Step 2: User pays through coinbase&lt;/div&gt;&lt;div align=&quot;left&quot;&gt;curl -X POST https://api.developer.coinbase.com/onramp/v1/token \&lt;br&gt;&amp;nbsp; -H &quot;Authorization: Bearer &amp;lt;your JWT&amp;gt;&quot; \&lt;br&gt;&amp;nbsp; -H &quot;Content-Type: application/json&quot; \&lt;br&gt;&amp;nbsp; -d &#39;{&lt;br&gt;&amp;nbsp; &amp;nbsp; &quot;addresses&quot;: [{&quot;address&quot;:&quot;0xUsersWallet&quot;,&quot;blockchains&quot;:[&quot;base&quot;,&quot;ethereum&quot;]}],&lt;br&gt;&amp;nbsp; &amp;nbsp; &quot;assets&quot;: [&quot;USDC&quot;]&lt;br&gt;&amp;nbsp; }&#39;&lt;/div&gt;&lt;div align=&quot;left&quot;&gt;&lt;br&gt;&lt;/div&gt;&lt;div align=&quot;left&quot;&gt;Step 2: Our wallet on the app will be connected to lets say Base main (Base sepolia), user receives usdc into that wallet&lt;/div&gt;&lt;div align=&quot;left&quot;&gt;&lt;br&gt;&lt;/div&gt;&lt;div align=&quot;left&quot;&gt;step 3: Users can see their balance, what they&#39;ve earned through yield, etc&lt;/div&gt;&lt;div align=&quot;left&quot;&gt;&lt;br&gt;&lt;/div&gt;&lt;div align=&quot;left&quot;&gt;step 4: users can pull it out of the account (pull all, pull yield)&lt;/div&gt;&lt;div align=&quot;left&quot;&gt;&lt;br&gt;&lt;/div&gt;" style="rounded=0;whiteSpace=wrap;html=1;align=center;labelPosition=center;verticalLabelPosition=middle;verticalAlign=top;" vertex="1" parent="1">
          <mxGeometry x="-530" y="420" width="410" height="320" as="geometry" />
        </mxCell>
        <mxCell id="4uSh787dof98kMlYw8wE-34" style="edgeStyle=orthogonalEdgeStyle;rounded=0;orthogonalLoop=1;jettySize=auto;html=1;entryX=0.482;entryY=0.895;entryDx=0;entryDy=0;entryPerimeter=0;" edge="1" parent="1" source="4uSh787dof98kMlYw8wE-33" target="4uSh787dof98kMlYw8wE-27">
          <mxGeometry relative="1" as="geometry" />
        </mxCell>
        <mxCell id="4uSh787dof98kMlYw8wE-35" value="&lt;div&gt;Why Hedera: Hipaa compliance&lt;/div&gt;&lt;div&gt;Why Flow:&lt;/div&gt;&lt;div&gt;Why Zircuit: Ai protection&lt;/div&gt;&lt;div&gt;&lt;br&gt;&lt;/div&gt;&lt;div&gt;&lt;br&gt;&lt;/div&gt;&lt;div&gt;Gas price?&lt;/div&gt;" style="rounded=0;whiteSpace=wrap;html=1;" vertex="1" parent="1">
          <mxGeometry x="240" y="660" width="240" height="140" as="geometry" />
        </mxCell>
        <mxCell id="4uSh787dof98kMlYw8wE-36" value="&lt;div&gt;&lt;font style=&quot;font-size: 24px;&quot;&gt;Users Wallets (Base blockchain)&lt;/font&gt;&lt;/div&gt;&lt;div&gt;&lt;br&gt;&lt;/div&gt;" style="rounded=0;whiteSpace=wrap;html=1;" vertex="1" parent="1">
          <mxGeometry x="50" y="-30" width="600" height="230" as="geometry" />
        </mxCell>
        <mxCell id="4uSh787dof98kMlYw8wE-37" value="Underlying database of wallets" style="rounded=0;whiteSpace=wrap;html=1;" vertex="1" parent="1">
          <mxGeometry x="620" y="397.5" width="100" height="47.5" as="geometry" />
        </mxCell>
        <mxCell id="4uSh787dof98kMlYw8wE-38" value="Underlying database of wallets" style="rounded=0;whiteSpace=wrap;html=1;" vertex="1" parent="1">
          <mxGeometry x="317.5" y="385" width="100" height="47.5" as="geometry" />
        </mxCell>
        <mxCell id="4uSh787dof98kMlYw8wE-39" value="Underlying database of wallets" style="rounded=0;whiteSpace=wrap;html=1;" vertex="1" parent="1">
          <mxGeometry x="62.5" y="385" width="100" height="47.5" as="geometry" />
        </mxCell>
        <mxCell id="4uSh787dof98kMlYw8wE-40" value="&lt;div&gt;wallet database:&lt;/div&gt;&lt;div&gt;identify wallet per user, user logs in, get the wallet&lt;/div&gt;&amp;nbsp;associated" style="rounded=0;whiteSpace=wrap;html=1;" vertex="1" parent="1">
          <mxGeometry x="810" y="310" width="130" height="90" as="geometry" />
        </mxCell>
      </root>
    </mxGraphModel>
  </diagram>
</mxfile>
